<svg width="200" height="200" viewBox="0 0 200 200" fill="none" xmlns="http://www.w3.org/2000/svg">
<g style="mix-blend-mode:luminosity" opacity="0.5">
<mask id="mask0_22426_2185" style="mask-type:luminance" maskUnits="userSpaceOnUse" x="23" y="15" width="154" height="170">
<path d="M23 15H176.716V185H23V15Z" fill="white"/>
</mask>
<g mask="url(#mask0_22426_2185)">
<path d="M174.172 130.947C169.268 118.107 163.435 105.546 157.834 93.0149C155.432 87.6385 153.242 82.1883 150.782 76.8359C149.969 75.0629 149.094 73.3175 148.29 71.5426C148.173 71.2861 148.059 71.0241 147.939 70.764C148.208 70.6311 148.472 70.5001 148.472 70.5001L148.022 69.5075L148.002 69.5186L142.159 56.4153H142.161L142.079 56.2363L141.718 55.4263L141.708 55.43V55.4282C141.708 55.4282 141.105 55.6902 140.906 55.7769C139.319 56.4614 137.692 57.0094 136.138 57.5979C131.363 59.4079 126.528 61.1385 122 63.5315C118.472 65.3987 114.72 66.7953 111.127 68.5204C99.5904 74.0647 87.9446 79.2677 76.1937 84.3544C72.0018 86.168 67.7915 87.8784 63.6052 89.6902C60.6771 90.9577 57.8653 92.6644 54.8764 93.7658C52.4668 94.6533 50.1402 95.9411 47.8155 97.0389C47.0148 97.4171 46.0886 97.7603 45.3911 98.3175L45.3303 98.3655L44.1863 95.7049C49.5756 91.0869 54.655 86.0721 60.0535 81.4522C65.7362 76.5942 71.5185 71.8913 77.2841 67.1404C80.1679 64.7658 82.8432 62.1238 85.655 59.6607L87.2565 58.299C87.5978 58.0167 87.9391 57.7345 88.286 57.4596C93.2565 53.5352 98.6568 49.8083 103.347 45.5592C108.887 40.537 114.747 35.6791 120.561 30.9743C121.945 29.8544 123.301 28.7068 124.679 27.5795C125.063 27.2658 125.897 26.4632 125.897 26.4632L125.216 25.7363L125.208 25.7437L123.863 24.3083L115.959 15.8691L115.963 15.8655L115.238 15.0942C115.238 15.0942 114.983 15.3728 114.891 15.4503C113.956 16.2197 112.895 16.8359 111.917 17.5518C107.697 20.6348 103.637 24.3931 99.7528 27.8876C94.9391 32.2197 89.7269 36.2548 84.69 40.3452C75.0258 48.1939 65.4299 56.1053 56.024 64.2603C48.7528 70.5647 40.8247 76.0149 33.6236 82.3784C31.3007 84.43 29.0609 86.5555 26.7011 88.561C25.9483 89.1976 25.2454 89.9227 24.417 90.4614C24.1439 90.6404 23.869 90.8691 23.583 91.0278C23.5166 91.0555 23 91.3968 23 91.3968L23.6255 92.2695H23.6273L24.2897 93.2068C24.1919 93.2861 24.131 93.3876 24.1089 93.5112C24.0849 93.6367 24.1052 93.7529 24.1697 93.8618C24.8542 95.0389 25.8413 96.1053 26.6513 97.1994C28.6162 99.8599 30.5849 102.513 32.559 105.155C32.6273 105.247 32.7159 105.308 32.8247 105.34L33.155 106.218C33.1384 106.225 33.1218 106.233 33.1052 106.242C33.0461 106.273 32.9945 106.316 32.9502 106.367C32.9077 106.421 32.8764 106.48 32.8561 106.544C32.8358 106.611 32.8284 106.677 32.8358 106.744C32.8413 106.812 32.8616 106.877 32.893 106.936C34.0018 109.015 34.7269 111.343 35.5369 113.55C35.703 114 35.8598 114.808 36.0849 115.508C36.2196 116.004 36.452 116.448 36.7823 116.843C36.8339 116.895 36.8948 116.934 36.9649 116.961C37.0055 117.017 37.0554 117.063 37.1162 117.1C37.3284 117.207 37.5461 117.223 37.7712 117.148C37.9465 117.094 38.1144 117.026 38.2768 116.945L40.0332 121.061C40.0166 121.085 40.0018 121.109 39.9908 121.135C39.9428 121.255 39.9262 121.378 39.941 121.508C39.9926 121.832 40.0849 122.142 40.2196 122.441C40.4631 122.926 40.6513 123.441 40.8598 123.941C41.4649 125.402 42.1199 126.832 42.7583 128.279C44.6845 132.642 46.524 137.043 48.5129 141.378C52.5148 150.105 55.5683 159.26 59.5387 167.993C61.3358 171.943 62.4373 176.832 65.2731 180.234C65.3801 180.362 65.5185 180.423 65.6845 180.417C65.9631 180.989 66.2934 181.53 66.6753 182.039C66.7528 182.139 67.0221 182.513 67.3026 182.86C67.2601 182.941 67.2435 183.026 67.2509 183.118C67.2583 183.251 67.3081 183.364 67.4041 183.456C67.5424 183.629 67.7011 183.779 67.8819 183.906C68.2601 184.091 68.6384 184.277 69.0148 184.461C70.0037 184.943 71.2196 184.786 72.3044 184.777C75.4945 184.747 78.4797 182.937 81.428 181.924C81.5037 181.901 81.5683 181.86 81.6255 181.805C81.6808 181.749 81.7232 181.685 81.7491 181.609C81.7749 181.535 81.7823 181.458 81.7731 181.38C81.762 181.301 81.7362 181.229 81.6919 181.163C82.1863 180.956 82.679 180.749 83.1716 180.539C83.2399 180.655 83.3395 180.733 83.4705 180.77C83.6015 180.806 83.7269 180.795 83.8469 180.733C87.6771 178.751 91.9613 177.699 96.0517 176.341C102.024 174.362 107.755 171.663 113.707 169.613C118.699 167.891 123.419 165.316 128.312 163.358C133.441 161.305 138.756 159.845 143.887 157.792C150.234 155.253 156.445 152.485 162.904 150.225C162.969 150.203 163.026 150.17 163.077 150.124C163.127 150.078 163.168 150.024 163.197 149.963C163.227 149.902 163.244 149.838 163.247 149.77C163.251 149.701 163.242 149.635 163.22 149.57C163.192 149.491 163.146 149.423 163.083 149.365L164.493 148.775C166.756 147.827 168.958 146.729 171.194 145.727C171.875 145.421 172.552 145.166 173.24 144.884C173.596 144.74 174.301 143.948 174.249 144.329C178.513 141.897 175.476 134.365 174.172 130.947Z" fill="#456188"/>
</g>
<path fill-rule="evenodd" clip-rule="evenodd" d="M37.8594 115.51C37.9205 115.559 38.7237 115.036 39.0217 114.897C40.2746 114.313 41.5517 113.752 42.7639 113.089C47.8202 110.321 53.3632 108.815 58.5213 106.338C68.9781 101.311 79.7829 96.783 90.4951 92.3252C93.684 90.9987 97.0709 90.2043 100.256 88.8612C108.238 85.4989 115.956 81.4881 123.942 78.1443C129.891 75.6558 135.922 73.3317 141.811 70.7157C143.198 70.1005 144.639 69.6368 146.02 69.0013C146.19 68.9237 147.251 68.6189 147.271 68.4212C147.299 68.1293 147.567 68.9237 147.723 69.1731C148.054 69.7421 148.344 70.3315 148.596 70.9411C149.403 72.7202 150.28 74.466 151.097 76.2414C153.564 81.6008 155.76 87.06 158.17 92.4434C163.789 104.991 169.639 117.569 174.559 130.425C175.867 133.85 178.915 141.389 174.635 143.826C174.686 143.446 173.979 144.238 173.624 144.382C172.932 144.665 172.253 144.92 171.57 145.227C169.327 146.23 167.119 147.331 164.848 148.278C158 151.144 151.197 153.965 144.275 156.597C137.479 159.182 130.631 161.665 123.816 164.24C118.878 166.108 114.155 168.515 109.179 170.283C103.243 172.391 97.2671 174.416 91.3835 176.675C86.727 178.462 82.2981 180.673 77.599 182.343C74.3491 183.498 71.4137 184.448 68.0842 183.095C68.0842 183.068 68.0731 183.082 68.0583 183.062C67.864 183.149 66.8868 181.791 66.7295 181.584C65.3988 179.859 64.9305 177.688 63.6942 175.951" fill="#456188"/>
<mask id="mask1_22426_2185" style="mask-type:luminance" maskUnits="userSpaceOnUse" x="23" y="19" width="136" height="138">
<path d="M23 19.6864H158.295V156.188H23V19.6864Z" fill="white"/>
</mask>
<g mask="url(#mask1_22426_2185)">
<path fill-rule="evenodd" clip-rule="evenodd" d="M103.671 124.48C103.723 124.679 103.797 124.869 103.889 125.052C104.21 125.692 104.804 126.511 104.979 126.88C105.839 128.685 106.815 130.454 107.627 132.279C107.763 132.585 107.87 133.105 108.02 133.554C108.103 133.814 108.217 134.061 108.363 134.293C101.754 137.384 95.1528 140.491 88.4646 143.397C82.7303 145.889 76.9775 148.264 71.2709 150.83C69.4203 151.664 67.5624 152.469 65.7266 153.332C65.0882 153.633 64.4923 154.031 63.8723 154.375C63.6915 154.476 63.2653 154.592 63.0624 154.69C62.9443 154.745 62.8447 154.823 62.7653 154.924C62.638 155.087 62.6177 155.262 62.6989 155.45C62.7727 155.629 62.9019 155.742 63.0882 155.788C63.2026 155.823 63.3151 155.819 63.4258 155.775C63.5384 155.733 63.6233 155.659 63.6841 155.555C63.9185 155.474 64.1454 155.38 64.3705 155.275C64.9683 154.941 65.5439 154.555 66.1638 154.264C67.9941 153.402 69.8465 152.598 71.6915 151.769C77.3945 149.205 83.1417 146.83 88.8742 144.34C100.959 139.089 112.763 133.181 124.846 127.899C127.514 126.731 130.086 125.314 132.8 124.258C135.631 123.159 138.586 122.358 141.404 121.255C145.588 119.618 149.736 117.893 153.917 116.244C154.885 115.862 155.846 115.448 156.834 115.12C157.179 115.03 157.511 114.908 157.834 114.757C158.048 114.64 158.158 114.461 158.168 114.218C158.168 114.109 158.136 114.011 158.073 113.921C158.011 113.832 157.928 113.769 157.824 113.733C157.721 113.698 157.618 113.694 157.513 113.723C157.407 113.753 157.321 113.81 157.252 113.895L156.509 114.144C155.503 114.48 154.525 114.899 153.537 115.286C149.358 116.936 145.212 118.661 141.027 120.297C138.21 121.399 135.254 122.201 132.426 123.301C129.699 124.36 127.114 125.782 124.433 126.956C119.359 129.174 114.334 131.502 109.317 133.847C109.299 133.821 109.278 133.795 109.256 133.773C109.09 133.541 108.979 133.284 108.926 133.006C108.824 132.616 108.704 132.236 108.564 131.86C107.749 130.028 106.769 128.251 105.907 126.439C105.752 126.114 105.284 125.45 104.948 124.854C104.858 124.699 104.776 124.537 104.708 124.371C104.686 124.312 104.669 124.251 104.655 124.188C104.658 124.15 104.658 124.113 104.653 124.074C112.787 120.731 120.961 117.513 128.843 113.576C133.87 111.063 139.201 109.585 144.359 107.413C146.083 106.688 147.915 106.137 149.588 105.301C150.168 105.011 150.804 104.817 151.4 104.563C151.544 104.493 151.679 104.406 151.804 104.306C151.856 104.266 151.924 104.216 151.987 104.17C152.011 104.174 152.035 104.175 152.059 104.175C152.127 104.175 152.192 104.162 152.254 104.135C152.317 104.109 152.374 104.072 152.422 104.024C152.47 103.976 152.507 103.921 152.533 103.858C152.559 103.795 152.572 103.729 152.572 103.661C152.581 103.48 152.518 103.328 152.383 103.207C152.276 103.105 152.147 103.054 151.998 103.055C151.817 103.07 151.655 103.131 151.509 103.24C151.346 103.378 151.175 103.504 150.994 103.618C150.38 103.88 149.725 104.081 149.127 104.38C147.474 105.207 145.664 105.749 143.959 106.467C138.78 108.646 133.43 110.133 128.382 112.657C118.496 117.596 108.149 121.399 98.0033 125.744C90.1694 129.1 82.4517 132.762 74.579 136.022C70.972 137.519 67.2635 138.978 63.7321 140.646C62.3188 141.312 60.8686 142.004 59.5107 142.779C59.3963 142.843 58.4166 143.386 58.3207 143.439C58.2819 143.454 58.245 143.472 58.2118 143.496C58.1565 143.535 58.1103 143.583 58.0734 143.64C58.0365 143.698 58.0107 143.76 57.9996 143.827C57.9867 143.895 57.9886 143.961 58.0033 144.028C58.0162 144.094 58.0439 144.155 58.0827 144.212C58.1638 144.316 58.2672 144.382 58.3963 144.412C58.5255 144.441 58.6472 144.426 58.7653 144.365C58.959 144.271 59.8945 143.742 60.0199 143.672C61.3557 142.908 62.7819 142.231 64.1712 141.574C67.6878 139.915 71.3816 138.461 74.9738 136.972C82.8502 133.709 90.5716 130.044 98.4074 126.688C100.158 125.939 101.913 125.203 103.671 124.48ZM58.924 143.62C58.8373 143.489 58.7155 143.419 58.5587 143.408C58.7118 143.423 58.8354 143.495 58.924 143.62L58.9295 143.626C58.9277 143.624 58.9258 143.622 58.924 143.62ZM147.147 91.203C146.979 91.2529 146.26 91.4687 146.206 91.4872C144.954 91.9484 143.771 92.596 142.514 93.0499C139.974 93.9632 137.461 95.2676 135.027 96.441C132.594 97.6163 129.979 98.406 127.524 99.5333C114.203 105.648 100.525 110.808 86.972 116.349C81.7819 118.471 76.7155 120.867 71.4683 122.856C66.8244 124.614 62.3447 126.614 57.7745 128.517C56.6971 128.965 55.6786 129.495 54.579 129.886C54.2007 130.019 53.8354 130.177 53.4812 130.364C53.352 130.458 53.2782 130.581 53.2561 130.74C53.2432 130.847 53.2616 130.95 53.3133 131.046C53.365 131.142 53.4388 131.214 53.5365 131.264C53.6343 131.312 53.7376 131.328 53.8465 131.31C53.9535 131.293 54.0476 131.247 54.1251 131.172C54.3483 131.057 54.8483 130.882 54.9258 130.854C56.0421 130.456 57.0753 129.921 58.1712 129.465C62.7303 127.567 67.2007 125.574 71.8317 123.817C77.09 121.825 82.1638 119.426 87.3613 117.301C100.928 111.753 114.62 106.587 127.954 100.467C130.417 99.3359 133.037 98.5444 135.476 97.3654C137.878 96.2086 140.358 94.9189 142.863 94.0167C144.123 93.5628 145.308 92.9134 146.562 92.4521C146.937 92.3617 147.304 92.2436 147.662 92.0997C147.775 92.0499 147.865 91.9743 147.933 91.8746C148.003 91.7731 148.042 91.6625 148.049 91.5407C148.049 91.4337 148.018 91.3359 147.957 91.2473C147.896 91.1606 147.817 91.0979 147.715 91.0591C147.616 91.0222 147.514 91.0148 147.409 91.0425C147.306 91.0684 147.219 91.1219 147.149 91.2012L147.147 91.203ZM54.2616 130.943C54.2653 130.93 54.269 130.917 54.2709 130.904C54.2727 130.893 54.2745 130.88 54.2764 130.869C54.2727 130.893 54.269 130.919 54.2616 130.943ZM50.9923 110.917L38.9978 115.965L36.1103 114.044L32.8244 105.338L38.7247 102.755L50.9923 110.917ZM74.7081 100.936L62.7137 105.983L49.2672 97.037L60.948 91.7787L74.7081 100.936ZM151.542 103.688L151.551 103.76C151.548 103.736 151.544 103.712 151.542 103.688ZM151.542 103.686V103.661C151.542 103.67 151.542 103.677 151.542 103.686ZM30.5162 85.5148L48.7247 91.0684L43.9406 95.1385L44.0126 95.3045L39.245 99.5167L25.8668 95.4355L23.1602 91.6071L30.5162 85.5148ZM98.424 90.954L86.4295 96.0019L72.3631 86.6403L84.0421 81.3839L98.424 90.954ZM147.02 91.5148C147.02 91.5185 147.02 91.5241 147.02 91.5278V91.5407V91.5148ZM122.14 80.9724L110.145 86.0204L95.459 76.2455L107.138 70.989L122.14 80.9724ZM68.1269 74.5665L58.3151 82.9115L40.2948 77.4152L50.3022 69.1292L68.1269 74.5665ZM145.856 70.9909L133.861 76.0388L118.553 65.8506L130.232 60.5942L145.856 70.9909ZM87.531 58.0647L77.7174 66.4097L60.0808 61.0296L70.0864 52.7436L87.531 58.0647ZM106.933 41.5628L97.1196 49.9078L79.8668 44.644L89.8723 36.358L106.933 41.5628ZM116.524 33.406L99.6509 28.2584L109.656 19.9724L123.861 24.3064L125.352 25.8968L116.524 33.406Z" fill="#BDCBDD"/>
</g>
<path fill-rule="evenodd" clip-rule="evenodd" d="M81.0669 139.287C81.0483 139.271 81.0316 139.254 81.0167 139.238C80.9758 139.188 80.9405 139.139 80.907 139.086C80.7973 138.897 80.6653 138.727 80.5091 138.573C80.3473 138.429 80.1558 138.368 79.9382 138.392C79.7263 138.421 79.5496 138.513 79.4046 138.668C78.7241 139.34 78.1328 140.781 77.3909 141.883C77.0023 142.46 76.5876 142.956 76.0224 143.031C76.0001 143.033 75.987 143.011 75.9684 142.994C75.9331 142.959 75.9034 142.923 75.8755 142.883C75.7788 142.727 75.7044 142.564 75.6505 142.39C75.5017 141.907 75.4162 141.413 75.3976 140.909C75.3958 140.838 75.3976 140.752 75.4013 140.704C75.4441 140.611 75.4552 140.512 75.4367 140.411C75.4199 140.311 75.3734 140.223 75.3009 140.148C75.2303 140.074 75.1429 140.025 75.0406 140.003C74.9383 139.981 74.8398 139.988 74.7412 140.025C74.5609 140.093 74.4475 140.219 74.4028 140.404C74.3526 140.686 74.3452 140.97 74.3805 141.255C74.4437 141.995 74.6817 143.042 75.102 143.569C75.2191 143.739 75.3734 143.867 75.5631 143.952C75.7528 144.038 75.9517 144.067 76.1581 144.043C76.9911 143.933 77.6791 143.3 78.2555 142.447C78.8988 141.491 79.4027 140.252 79.981 139.564C80.0535 139.672 80.1409 139.798 80.2097 139.88C80.3176 140.027 80.4533 140.137 80.6188 140.213C80.7843 140.29 80.9591 140.32 81.1413 140.307C81.6805 140.241 82.1602 140.04 82.5786 139.699C82.9319 139.432 83.2535 139.104 83.5771 138.822C83.6273 138.776 83.6663 138.723 83.6961 138.663C83.724 138.603 83.7407 138.538 83.7444 138.473C83.7481 138.405 83.737 138.341 83.7147 138.277C83.6924 138.214 83.6589 138.158 83.6143 138.108C83.5678 138.057 83.5157 138.019 83.4544 137.989C83.393 137.96 83.3298 137.942 83.261 137.938C83.194 137.933 83.1271 137.942 83.062 137.962C82.9988 137.984 82.9412 138.017 82.8891 138.059C82.5823 138.326 82.2811 138.637 81.9464 138.89C81.6917 139.104 81.3979 139.236 81.0669 139.287ZM75.3548 140.788C75.3251 140.83 75.2898 140.867 75.2507 140.898C75.208 140.931 75.1615 140.957 75.1113 140.975C75.2172 140.942 75.2972 140.88 75.3548 140.788ZM87.5078 137.061C87.5618 137.021 87.6789 136.933 87.7812 136.869C88.1958 136.622 88.6272 136.408 89.0753 136.226C89.1422 136.206 89.2017 136.175 89.2557 136.131C89.3077 136.085 89.3505 136.034 89.3821 135.972C89.4137 135.912 89.4323 135.847 89.4379 135.78C89.4416 135.71 89.4342 135.644 89.4119 135.58C89.3895 135.514 89.3561 135.456 89.3096 135.404C89.265 135.353 89.211 135.313 89.1478 135.284C89.0865 135.253 89.0195 135.236 88.9507 135.232C88.8801 135.229 88.8131 135.238 88.7481 135.26C88.497 135.342 87.2773 135.906 86.8273 136.289C86.7176 136.371 86.6321 136.472 86.5763 136.596C86.5186 136.721 86.4963 136.849 86.5075 136.984C86.5279 137.1 86.5819 137.195 86.6693 137.274C86.7566 137.352 86.8589 137.394 86.9761 137.403C87.0951 137.413 87.2029 137.385 87.3014 137.323C87.4 137.259 87.4688 137.171 87.5078 137.061ZM80.2971 114.29L79.9866 114.094C79.7709 113.964 79.5385 113.924 79.2893 113.97C78.9844 114.049 78.7464 114.217 78.5753 114.479L78.4042 114.711C78.3782 114.691 78.3522 114.669 78.3336 114.651C78.2555 114.576 78.1718 114.506 78.0844 114.442C77.9282 114.31 77.7479 114.235 77.5415 114.221C77.337 114.204 77.1454 114.248 76.9688 114.354C76.6508 114.521 76.2678 115.032 75.8978 115.513C75.842 115.586 75.7862 115.659 75.7286 115.727C75.7342 115.645 75.7397 115.564 75.7453 115.498C75.7806 115.238 75.7676 114.982 75.7025 114.728C75.6672 114.62 75.6059 114.53 75.5185 114.457C75.4311 114.384 75.3307 114.338 75.2172 114.321C74.9532 114.299 74.7412 114.395 74.5813 114.603C74.295 114.999 74.0365 115.411 73.8022 115.837C73.4564 116.34 72.7666 117.417 71.9819 118.092C71.7792 118.277 71.5505 118.424 71.2958 118.528C71.1377 118.599 70.9741 118.607 70.8086 118.555C70.6543 118.501 70.6357 118.341 70.6171 118.177C70.5967 117.81 70.619 117.448 70.6822 117.087C70.751 116.727 70.7603 116.366 70.7157 116.004C70.6692 115.769 70.539 115.597 70.3233 115.489C70.2006 115.438 70.0742 115.429 69.944 115.465C69.8157 115.5 69.7116 115.572 69.6316 115.678C69.3564 116.015 68.1813 117.82 68.0716 117.966C67.6105 118.588 66.3665 120.146 65.2063 120.679C64.9664 120.822 64.708 120.86 64.4346 120.794C64.191 120.708 64.0107 120.463 63.8564 120.055C63.5849 119.344 63.7894 118.526 63.7894 117.794C63.7969 117.724 63.7913 117.657 63.7708 117.589C63.7522 117.521 63.7206 117.461 63.676 117.406C63.6332 117.349 63.5812 117.305 63.5179 117.269C63.4566 117.234 63.3915 117.212 63.3208 117.201C63.213 117.184 63.1107 117.201 63.014 117.25C62.9174 117.3 62.8448 117.371 62.7946 117.466C62.737 117.593 62.6924 117.723 62.6608 117.858C62.5827 118.151 62.4804 118.61 62.4042 118.821C62.1271 119.557 61.8036 120.269 61.4317 120.963C60.5076 122.705 59.4291 124.802 57.8933 126.07C57.8431 126.114 57.8003 126.165 57.7706 126.226C57.7389 126.284 57.7222 126.348 57.7166 126.414C57.7111 126.482 57.7185 126.546 57.7389 126.61C57.7594 126.674 57.7929 126.733 57.8356 126.784C57.8803 126.835 57.9323 126.876 57.9918 126.907C58.0513 126.938 58.1164 126.956 58.1833 126.964C58.2521 126.969 58.3172 126.964 58.3823 126.943C58.4474 126.925 58.5069 126.894 58.5608 126.852C60.1933 125.503 61.3685 123.288 62.3502 121.435C62.5325 121.091 62.7091 120.739 62.8727 120.381L62.8858 120.414C63.1833 121.193 63.6184 121.589 64.0832 121.755C64.6261 121.918 65.1468 121.869 65.6451 121.603C66.9578 121.001 68.3896 119.269 68.9102 118.566C68.9585 118.502 69.2616 118.056 69.5851 117.578C69.5387 117.979 69.5758 118.371 69.6948 118.757C69.8231 119.13 70.0779 119.383 70.4553 119.513C71.1693 119.769 71.9559 119.467 72.6643 118.859C73.5215 118.123 74.2857 116.956 74.6631 116.406L74.678 116.381C74.691 116.511 74.7264 116.633 74.7877 116.751C74.8974 116.952 75.0685 117.064 75.3009 117.082C75.7063 117.086 76.0372 116.935 76.2976 116.63C76.5932 116.297 76.8721 115.951 77.1324 115.59C77.2198 115.46 77.3277 115.346 77.456 115.253C77.4783 115.27 77.5173 115.297 77.5396 115.315C77.6233 115.39 77.7051 115.469 77.7906 115.537C78.0082 115.725 78.2611 115.808 78.5493 115.782C78.8022 115.746 79.0067 115.627 79.161 115.425C79.241 115.328 79.3191 115.209 79.4009 115.096C79.4288 115.059 79.4585 115.024 79.4901 114.991C79.5143 115.004 79.5422 115.021 79.5608 115.033C79.6296 115.081 79.7021 115.13 79.7728 115.171C79.9141 115.266 80.0703 115.317 80.2413 115.326C80.4124 115.335 80.5742 115.301 80.7248 115.22C81.2175 114.947 81.6229 114.579 81.9427 114.12C82.1714 113.774 82.4503 113.476 82.7794 113.219C82.837 113.183 82.8854 113.135 82.9226 113.08C82.9616 113.023 82.9877 112.961 83.0007 112.895C83.0137 112.829 83.0137 112.763 83.0007 112.696C82.9877 112.63 82.9616 112.569 82.9226 112.513C82.8854 112.456 82.837 112.41 82.7794 112.372C82.7236 112.335 82.6604 112.309 82.5935 112.297C82.5265 112.282 82.4577 112.282 82.3908 112.295C82.3239 112.309 82.2606 112.335 82.2048 112.372C81.7809 112.688 81.4183 113.064 81.119 113.498C80.9033 113.82 80.6299 114.085 80.2971 114.29ZM96.0164 119.661C95.9904 119.601 95.9699 119.539 95.9513 119.474C95.8937 119.246 95.8528 119.004 95.7952 118.834C95.7282 118.598 95.5832 118.427 95.3582 118.323C95.1462 118.237 94.9454 118.255 94.752 118.378C94.382 118.625 94.0678 118.929 93.8112 119.288C93.4021 119.809 92.9707 120.468 92.5226 120.998C92.333 121.237 92.1154 121.444 91.8663 121.62C91.751 121.711 91.619 121.754 91.4702 121.746C91.4609 121.726 91.4516 121.708 91.446 121.686C91.4274 121.622 91.4163 121.558 91.4107 121.492C91.3884 121.278 91.3977 121.051 91.3884 120.868C91.3884 120.661 91.3382 120.465 91.2378 120.284C91.1448 120.139 91.0147 120.049 90.8436 120.014C90.626 119.974 90.4271 120.02 90.2486 120.154C89.9325 120.368 89.4974 120.988 89.3951 121.109C89.0549 121.508 87.8537 123.257 86.7901 123.978C86.6674 124.066 86.5335 124.135 86.3903 124.186C86.329 124.212 86.2676 124.219 86.2025 124.21C86.1412 124.194 86.1003 124.137 86.0538 124.064C85.9813 123.928 85.9274 123.787 85.8957 123.639C85.8307 123.381 85.9645 123.099 86.0371 122.835C86.1356 122.548 86.1579 122.253 86.1059 121.955C86.0891 121.889 86.0594 121.83 86.0185 121.777C85.9776 121.724 85.9274 121.68 85.8697 121.647C85.8121 121.613 85.7489 121.591 85.6819 121.582C85.615 121.571 85.548 121.574 85.483 121.591C85.416 121.605 85.3565 121.633 85.3007 121.673C85.2468 121.711 85.2003 121.759 85.165 121.816C85.1297 121.873 85.1055 121.935 85.0943 122.001C85.0832 122.067 85.0851 122.131 85.0999 122.197C85.1055 122.385 85.0683 122.565 84.9884 122.737C84.8545 123.108 84.821 123.491 84.8861 123.881C85.0962 124.723 85.5109 125.085 85.9367 125.195C86.3513 125.303 86.8589 125.17 87.3758 124.82C88.5175 124.047 89.8246 122.191 90.1891 121.765L90.375 121.543C90.3862 121.739 90.4289 121.929 90.4977 122.112C90.5572 122.275 90.6539 122.414 90.7878 122.528C90.9217 122.64 91.076 122.713 91.2489 122.744C91.5929 122.808 91.9183 122.757 92.2251 122.592C92.6528 122.35 93.0154 122.037 93.3166 121.653C93.774 121.115 94.2128 120.443 94.6293 119.914C94.726 119.791 94.8171 119.678 94.9082 119.577C94.925 119.648 94.9436 119.718 94.9584 119.777C95.1128 120.342 95.4512 120.734 95.9792 120.706C96.3604 120.653 96.697 120.5 96.987 120.249C97.6118 119.771 98.3686 118.909 99.0807 118.35C99.2704 118.189 99.4805 118.061 99.7129 117.966C99.7817 117.935 99.8542 117.924 99.9305 117.937C100.001 117.964 100.053 118.01 100.09 118.074C100.129 118.127 100.18 118.171 100.237 118.206C100.295 118.241 100.358 118.263 100.425 118.274C100.492 118.283 100.559 118.281 100.626 118.266C100.691 118.25 100.752 118.222 100.808 118.184C100.862 118.145 100.908 118.098 100.944 118.041C100.981 117.984 101.005 117.924 101.016 117.858C101.027 117.792 101.027 117.726 101.013 117.66C100.998 117.596 100.972 117.536 100.933 117.481C100.304 116.615 99.3931 116.802 98.4336 117.554C97.8182 118.037 97.1693 118.742 96.6003 119.24C96.4552 119.37 96.3009 119.487 96.1354 119.593C96.0982 119.619 96.0573 119.641 96.0164 119.661ZM120.371 122.804V122.795C120.371 122.727 120.358 122.662 120.332 122.599C120.304 122.537 120.267 122.482 120.218 122.435C120.17 122.385 120.114 122.349 120.051 122.323C119.988 122.297 119.921 122.284 119.852 122.284C119.709 122.283 119.586 122.332 119.486 122.433C119.352 122.572 119.303 122.735 119.339 122.922C119.415 123.357 119.581 123.756 119.835 124.121C119.96 124.309 120.123 124.454 120.326 124.556C120.529 124.657 120.744 124.705 120.971 124.694C121.321 124.655 121.624 124.521 121.884 124.289C122.448 123.831 122.993 122.658 123.589 121.722C123.738 121.475 123.911 121.246 124.11 121.036C124.183 120.959 124.262 120.893 124.352 120.836C124.372 120.869 124.391 120.904 124.406 120.935C124.478 121.087 124.551 121.263 124.632 121.431C124.867 121.918 125.201 122.33 125.668 122.438C125.942 122.497 126.207 122.473 126.466 122.363C127.764 121.862 128.922 120.507 129.869 119.548C130.006 119.409 130.276 119.035 130.557 118.759L130.575 118.742C130.683 118.958 130.802 119.169 130.932 119.374C130.975 119.427 131.027 119.469 131.086 119.502C131.148 119.535 131.211 119.555 131.28 119.562C131.349 119.57 131.416 119.564 131.481 119.546C131.548 119.526 131.607 119.496 131.661 119.454C131.715 119.41 131.758 119.361 131.791 119.301C131.825 119.242 131.845 119.18 131.853 119.112C131.86 119.044 131.854 118.978 131.836 118.914C131.815 118.848 131.786 118.79 131.743 118.737C131.644 118.618 131.423 118.069 131.261 117.854C131.137 117.671 130.962 117.572 130.737 117.561C130.452 117.582 130.207 117.688 129.997 117.878C129.686 118.18 129.396 118.501 129.125 118.837C128.271 119.701 127.258 120.961 126.087 121.413C126.027 121.446 125.962 121.455 125.893 121.441C125.828 121.408 125.778 121.36 125.743 121.298C125.624 121.115 125.523 120.921 125.443 120.719C125.345 120.465 125.209 120.231 125.036 120.018C124.943 119.912 124.83 119.837 124.694 119.793C124.56 119.749 124.422 119.744 124.285 119.777C123.712 119.901 123.173 120.454 122.712 121.181C122.373 121.713 122.057 122.332 121.745 122.837C121.607 123.084 121.434 123.306 121.226 123.502C121.087 123.615 120.979 123.683 120.877 123.676C120.733 123.663 120.663 123.515 120.588 123.388C120.493 123.203 120.421 123.008 120.371 122.804ZM120.306 123.042C120.207 123.216 120.055 123.304 119.852 123.304C119.947 123.31 120.036 123.289 120.12 123.242C120.202 123.194 120.265 123.128 120.306 123.042ZM135.449 115.868C135.551 116.375 135.742 116.743 136.055 116.939C136.36 117.115 136.685 117.161 137.027 117.078C137.096 117.065 137.157 117.042 137.215 117.003C137.273 116.967 137.321 116.921 137.36 116.866C137.399 116.811 137.427 116.749 137.44 116.683C137.455 116.617 137.457 116.551 137.444 116.485C137.433 116.417 137.407 116.357 137.369 116.3C137.332 116.243 137.286 116.196 137.23 116.157C137.174 116.119 137.111 116.091 137.044 116.077C136.977 116.064 136.91 116.062 136.843 116.073C136.739 116.093 136.665 116.11 136.611 116.077C136.574 116.053 136.562 116.005 136.544 115.958C136.508 115.863 136.482 115.767 136.466 115.669C136.453 115.603 136.427 115.54 136.388 115.486C136.35 115.429 136.302 115.381 136.244 115.345C136.189 115.306 136.125 115.282 136.058 115.268C135.992 115.255 135.923 115.255 135.856 115.268C135.789 115.282 135.726 115.306 135.67 115.345C135.612 115.381 135.564 115.429 135.527 115.486C135.488 115.54 135.462 115.603 135.449 115.669C135.436 115.735 135.436 115.8 135.449 115.868ZM107.34 115.083C107.31 115.065 107.247 115.022 107.212 114.995C107.121 114.924 107.033 114.849 106.944 114.792C106.712 114.623 106.455 114.576 106.176 114.647C105.806 114.762 105.494 114.966 105.239 115.255C104.969 115.537 104.746 115.892 104.43 116.07C104.371 116.102 104.32 116.146 104.28 116.199C104.239 116.253 104.211 116.313 104.192 116.377C104.175 116.441 104.17 116.507 104.179 116.573C104.188 116.639 104.209 116.701 104.242 116.76C104.276 116.818 104.32 116.868 104.373 116.908C104.426 116.95 104.486 116.979 104.551 116.998C104.616 117.016 104.683 117.021 104.75 117.014C104.819 117.007 104.882 116.988 104.942 116.956C105.295 116.721 105.6 116.437 105.856 116.104C105.996 115.914 106.171 115.764 106.381 115.654C106.444 115.703 106.593 115.815 106.68 115.881C106.818 115.994 106.976 116.068 107.154 116.099C107.333 116.128 107.506 116.112 107.675 116.049C108.173 115.832 108.601 115.519 108.956 115.11C109.233 114.788 109.544 114.503 109.889 114.254C110.646 113.783 111.327 113.829 112.147 113.649C112.214 113.635 112.275 113.609 112.331 113.569C112.387 113.53 112.433 113.483 112.47 113.426C112.506 113.369 112.532 113.307 112.543 113.241C112.554 113.173 112.552 113.108 112.537 113.042C112.522 112.976 112.496 112.915 112.457 112.86C112.418 112.806 112.368 112.76 112.31 112.723C112.253 112.687 112.189 112.663 112.122 112.652C112.056 112.639 111.989 112.641 111.922 112.655C110.979 112.86 110.205 112.849 109.335 113.39C108.919 113.684 108.543 114.023 108.207 114.404C107.967 114.691 107.679 114.916 107.34 115.085V115.083ZM141.52 115.35C141.629 115.363 141.731 115.341 141.828 115.29C141.925 115.237 141.996 115.162 142.044 115.065C142.09 114.966 142.105 114.865 142.087 114.757C142.068 114.651 142.02 114.559 141.942 114.484C141.854 114.389 141.744 114.33 141.614 114.312C141.484 114.294 141.363 114.318 141.252 114.384C141.138 114.437 141.057 114.521 141.004 114.632C140.952 114.744 140.943 114.859 140.977 114.977C141.01 115.096 141.077 115.191 141.181 115.26C141.283 115.332 141.397 115.361 141.521 115.35H141.52ZM141.229 115.224C141.267 115.259 141.309 115.288 141.356 115.31C141.397 115.33 141.441 115.343 141.488 115.346C141.389 115.33 141.304 115.29 141.229 115.224ZM93.8465 109.499C93.8261 109.434 93.8056 109.36 93.7945 109.302C93.748 109.08 93.7145 108.848 93.6662 108.67C93.6122 108.386 93.456 108.178 93.1957 108.046C93.0191 107.975 92.8462 107.98 92.6751 108.064C92.3516 108.225 92.0875 108.452 91.8849 108.745C91.6078 109.155 91.3605 109.58 91.143 110.023C90.9979 110.318 90.8138 110.589 90.5907 110.832C90.4531 110.99 90.2802 111.068 90.0682 111.068C89.9381 111.065 89.8711 110.951 89.8098 110.843C89.6982 110.627 89.622 110.398 89.5811 110.158L89.5364 109.882C89.5773 109.761 89.5718 109.642 89.5216 109.527C89.4714 109.41 89.3895 109.322 89.2743 109.267C89.1646 109.212 89.0511 109.197 88.9321 109.219C88.8131 109.243 88.7127 109.3 88.6328 109.39C88.5324 109.509 88.4859 109.646 88.4877 109.8C88.5008 109.988 88.5249 110.175 88.564 110.36C88.6384 110.79 88.7983 111.187 89.0437 111.55C89.1553 111.713 89.3003 111.841 89.4751 111.934C89.6499 112.029 89.8377 112.081 90.0366 112.086C90.8157 112.112 91.3679 111.63 91.803 110.942C92.0522 110.547 92.266 110.082 92.504 109.679C92.5765 109.553 92.6546 109.43 92.742 109.313C92.7625 109.43 92.7848 109.547 92.8127 109.659C92.9726 110.329 93.3779 110.704 93.932 110.554C94.7334 110.334 95.2559 109.637 95.7412 108.895C96.0555 108.412 96.3418 107.899 96.8141 107.673C96.8364 107.702 96.8587 107.735 96.8755 107.762C96.9629 107.905 97.0503 108.064 97.1488 108.207C97.4556 108.648 97.8591 108.93 98.4392 108.787C99.3633 108.56 99.7631 107.971 100.04 107.295C100.226 106.849 100.321 106.347 100.635 106.003C100.695 106.01 100.819 106.027 100.897 106.038C101.148 106.095 101.399 106.089 101.649 106.018C102.749 105.631 103.744 104.914 104.88 104.636C104.947 104.621 105.01 104.592 105.066 104.553C105.122 104.513 105.168 104.463 105.206 104.405C105.241 104.346 105.265 104.284 105.276 104.216C105.286 104.149 105.284 104.081 105.265 104.015C105.248 103.949 105.22 103.889 105.178 103.834C105.137 103.779 105.087 103.733 105.025 103.698C104.966 103.663 104.901 103.641 104.832 103.632C104.763 103.623 104.696 103.629 104.629 103.647C103.46 103.934 102.431 104.659 101.299 105.058C101.239 105.066 101.18 105.062 101.122 105.042C101.011 105.024 100.899 105.002 100.793 104.991C100.47 104.932 100.187 105.014 99.9472 105.236C99.5939 105.639 99.3447 106.096 99.1978 106.609C99.0119 107.107 98.8557 107.634 98.1882 107.799C98.1492 107.808 98.1268 107.779 98.1045 107.755C98.0599 107.707 98.0209 107.656 97.9855 107.601C97.8591 107.411 97.7494 107.198 97.6341 107.041C97.3589 106.666 97.0224 106.519 96.63 106.649C95.8528 106.902 95.347 107.614 94.8692 108.348C94.568 108.804 94.2946 109.285 93.8465 109.499ZM124.207 108.308C124.164 108.293 124.034 108.247 123.959 108.22C123.74 108.128 123.513 108.105 123.277 108.148C122.706 108.278 122.245 108.76 121.847 109.152C121.778 109.219 121.622 109.397 121.518 109.516C121.371 109.576 121.273 109.683 121.224 109.834C121.174 109.953 121.168 110.072 121.211 110.195C121.256 110.318 121.334 110.409 121.449 110.472C121.604 110.569 121.763 110.58 121.931 110.504C122.018 110.464 122.096 110.409 122.163 110.34C122.277 110.226 122.477 109.974 122.58 109.871C122.738 109.717 122.903 109.538 123.085 109.384C123.204 109.274 123.34 109.194 123.496 109.146C123.515 109.15 123.578 109.168 123.612 109.181C123.671 109.203 123.731 109.227 123.79 109.249C124.021 109.344 124.257 109.357 124.499 109.287C125.674 108.901 126.709 107.986 127.959 107.575C128.024 107.554 128.082 107.521 128.134 107.477C128.186 107.433 128.229 107.38 128.258 107.319C128.29 107.259 128.307 107.195 128.312 107.127C128.316 107.059 128.309 106.993 128.286 106.929C128.266 106.865 128.232 106.808 128.186 106.757C128.141 106.706 128.087 106.666 128.026 106.635C127.965 106.605 127.899 106.587 127.831 106.583C127.764 106.578 127.697 106.585 127.63 106.607C126.393 107.013 125.367 107.916 124.207 108.308ZM88.9768 110.23C88.9489 110.226 88.921 110.221 88.8949 110.212C88.8671 110.204 88.8392 110.193 88.8131 110.18C88.8652 110.206 88.921 110.223 88.9768 110.23ZM133.353 104.042C133.266 104.041 133.182 104.061 133.104 104.101C133.028 104.141 132.964 104.198 132.916 104.271C132.868 104.343 132.84 104.421 132.831 104.507C132.823 104.593 132.838 104.676 132.873 104.756C132.937 104.914 133.046 105.025 133.206 105.09C133.321 105.139 133.44 105.15 133.563 105.122C133.744 105.073 133.894 104.98 134.019 104.842C134.104 104.756 134.201 104.641 134.296 104.537C134.331 104.489 134.372 104.447 134.418 104.412C135.006 104.105 135.739 104.176 136.38 104.072C136.447 104.061 136.508 104.035 136.566 104C136.624 103.964 136.67 103.918 136.709 103.863C136.748 103.808 136.776 103.749 136.791 103.684C136.806 103.62 136.808 103.554 136.797 103.488C136.785 103.422 136.761 103.36 136.726 103.303C136.691 103.246 136.646 103.198 136.59 103.16C136.536 103.12 136.475 103.092 136.41 103.076C136.345 103.059 136.278 103.058 136.211 103.067C135.462 103.189 134.616 103.155 133.931 103.513C133.777 103.605 133.639 103.72 133.524 103.856L133.353 104.042ZM113.9 99.9931C113.841 100.03 113.79 100.075 113.749 100.132C113.709 100.187 113.681 100.248 113.666 100.313C113.651 100.379 113.647 100.445 113.66 100.511C113.671 100.579 113.694 100.641 113.731 100.698C113.768 100.755 113.813 100.804 113.868 100.842C113.973 100.916 114.09 100.947 114.216 100.938C114.344 100.929 114.454 100.881 114.547 100.795C114.677 100.687 115.053 100.268 115.382 99.9217C115.521 99.7752 115.713 99.5977 115.746 99.5684C116.079 99.4128 116.327 99.5244 116.576 99.5647C117.055 99.6434 117.543 99.6563 118.201 99.0082C118.249 98.9606 118.286 98.9057 118.312 98.8435C118.338 98.7812 118.351 98.7153 118.351 98.6494C118.351 98.5817 118.338 98.5158 118.312 98.4535C118.286 98.3913 118.249 98.3364 118.201 98.2888C118.153 98.2394 118.097 98.2027 118.032 98.1771C117.968 98.1515 117.903 98.1387 117.835 98.1387C117.766 98.1387 117.699 98.1515 117.636 98.1771C117.572 98.2027 117.517 98.2394 117.468 98.2888C117.359 98.4096 117.227 98.5011 117.072 98.5579C116.894 98.5908 116.717 98.5798 116.544 98.5231C116.1 98.4133 115.672 98.4609 115.261 98.6641C115.085 98.7757 114.925 98.9075 114.783 99.0613C114.491 99.356 114.002 99.8814 113.9 99.9931ZM114.212 99.9199C114.253 99.9235 114.292 99.9308 114.331 99.9437C114.37 99.9565 114.41 99.9729 114.443 99.9949C114.374 99.951 114.296 99.9253 114.214 99.9199H114.212Z" fill="white"/>
<mask id="mask2_22426_2185" style="mask-type:luminance" maskUnits="userSpaceOnUse" x="23" y="15" width="141" height="170">
<path d="M23 15H163.491V185H23V15Z" fill="white"/>
</mask>
<g mask="url(#mask2_22426_2185)">
<path fill-rule="evenodd" clip-rule="evenodd" d="M68.3598 182.996C68.3321 182.963 68.1661 182.764 68.1458 182.744C68.0203 182.594 67.8635 182.543 67.6734 182.583C67.5609 182.602 67.4668 182.653 67.3893 182.736C67.2841 182.843 67.238 182.969 67.2509 183.118C67.2583 183.251 67.31 183.364 67.4041 183.458C67.5424 183.629 67.7011 183.779 67.8819 183.908C68.2602 184.092 68.6384 184.277 69.0166 184.461C70.0037 184.943 71.2196 184.788 72.3044 184.777C75.4945 184.747 78.4797 182.937 81.428 181.926C81.4908 181.902 81.548 181.869 81.5978 181.823C81.6495 181.779 81.6882 181.725 81.7177 181.664C81.7472 181.603 81.7638 181.539 81.7675 181.472C81.7712 181.404 81.762 181.34 81.7399 181.275C81.7177 181.212 81.6845 181.153 81.6402 181.103C81.5959 181.052 81.5424 181.013 81.4834 180.982C81.4225 180.952 81.3579 180.936 81.2915 180.93C81.2233 180.924 81.1587 180.934 81.0941 180.954C78.2472 181.932 75.3764 183.722 72.2952 183.749C71.3635 183.758 70.3155 183.952 69.4686 183.537L68.3598 182.996ZM68.2786 183.089C68.2786 183.139 68.2712 183.19 68.2565 183.238C68.2417 183.286 68.2196 183.33 68.1937 183.371C68.2528 183.286 68.2804 183.192 68.2786 183.089ZM83.8469 180.733C87.6771 178.753 91.9613 177.699 96.0535 176.343C102.026 174.362 107.755 171.664 113.707 169.613C118.701 167.893 123.419 165.316 128.312 163.358C133.441 161.305 138.758 159.847 143.889 157.794C150.234 155.253 156.447 152.485 162.906 150.227C162.969 150.203 163.028 150.17 163.077 150.124C163.129 150.079 163.17 150.026 163.199 149.963C163.229 149.902 163.245 149.838 163.249 149.77C163.253 149.701 163.244 149.635 163.22 149.572C163.197 149.508 163.164 149.448 163.118 149.399C163.074 149.347 163.02 149.308 162.958 149.279C162.897 149.249 162.832 149.233 162.764 149.227C162.696 149.223 162.629 149.234 162.565 149.257C156.092 151.52 149.865 154.294 143.506 156.84C138.375 158.893 133.059 160.353 127.93 162.404C123.054 164.356 118.351 166.926 113.373 168.642C107.424 170.692 101.697 173.388 95.7306 175.367C91.5886 176.742 87.2546 177.816 83.3764 179.821C83.3155 179.853 83.262 179.895 83.2196 179.947C83.1753 179.998 83.1421 180.057 83.1218 180.122C83.1015 180.186 83.0923 180.255 83.0996 180.321C83.1052 180.389 83.1236 180.454 83.155 180.515C83.1864 180.576 83.2269 180.627 83.2804 180.672C83.3321 180.716 83.3911 180.747 83.4557 180.77C83.5203 180.79 83.5886 180.797 83.655 180.792C83.7233 180.784 83.7878 180.766 83.8487 180.734L83.8469 180.733ZM41.0092 121.572C41.059 121.467 41.072 121.356 41.048 121.244C41.024 121.129 40.9668 121.035 40.8782 120.96C40.738 120.827 40.572 120.779 40.3819 120.819C40.1937 120.853 40.0646 120.958 39.9926 121.135C39.9447 121.255 39.928 121.38 39.9447 121.508C39.9945 121.832 40.0867 122.144 40.2232 122.443C40.4649 122.926 40.655 123.441 40.8635 123.941C41.4686 125.404 42.1236 126.832 42.762 128.279C44.6882 132.642 46.5258 137.044 48.5148 141.38C52.5166 150.105 55.5701 159.262 59.5424 167.995C61.3395 171.945 62.441 176.834 65.2768 180.234C65.3192 180.288 65.3709 180.329 65.4317 180.362C65.4926 180.393 65.5572 180.412 65.6236 180.417C65.6919 180.424 65.7583 180.417 65.8229 180.397C65.8893 180.377 65.9483 180.345 66 180.301C66.0517 180.257 66.0941 180.205 66.1255 180.146C66.1568 180.085 66.1771 180.02 66.1827 179.952C66.1882 179.886 66.1827 179.819 66.1624 179.753C66.1421 179.688 66.1089 179.629 66.0664 179.578C63.2878 176.246 62.2399 171.439 60.4797 167.568C56.5055 158.836 53.4539 149.679 49.4502 140.952C47.4631 136.62 45.6273 132.223 43.703 127.864C43.0683 126.424 42.4151 125.002 41.8137 123.546C41.5978 123.024 41.3967 122.487 41.1439 121.982C41.0904 121.847 41.0443 121.71 41.0092 121.572ZM26.8026 95.7197L38.6476 99.3341C39.8266 98.2603 40.9613 97.0721 42.0535 96.1607C44.107 94.4522 46.107 92.6754 48.0886 90.8747L31.3856 85.7787C30.059 86.9835 28.7343 88.1828 27.3672 89.3433C26.583 90.0094 25.8432 90.7621 24.9779 91.323C24.6753 91.5204 24.3708 91.7714 24.0535 91.9429C24.0443 91.9466 23.6273 92.2714 23.6273 92.2714L23 91.3968C23 91.3968 23.5166 91.0536 23.583 91.0278C23.869 90.8691 24.1421 90.6385 24.417 90.4614C25.2454 89.9245 25.9502 89.1976 26.6993 88.561C29.0609 86.5555 31.3007 84.4319 33.6236 82.3784C40.8229 76.0149 48.7528 70.5666 56.024 64.2621C65.4299 56.1072 75.024 48.1939 84.69 40.3452C89.7269 36.2566 94.9391 32.2197 99.7528 27.8894C103.637 24.3931 107.697 20.6367 111.917 17.5518C112.895 16.8359 113.956 16.2197 114.889 15.4503C114.983 15.3728 115.238 15.0942 115.238 15.0942L115.963 15.8655L115.959 15.8691L123.862 24.3064L110.216 20.1422C106.893 22.7806 103.673 25.7418 100.568 28.5389L116.101 33.2769C117.373 32.2345 118.642 31.1994 119.913 30.1736C121.295 29.0536 122.649 27.9079 124.028 26.7806C124.411 26.4669 125.214 25.7345 125.214 25.7345L125.895 26.4596C125.895 26.4596 125.061 27.2621 124.677 27.5758C123.301 28.7031 121.943 29.8525 120.559 30.9725C114.747 35.6773 108.886 40.5334 103.347 45.5555C98.6568 49.8083 93.2546 53.5334 88.2841 57.4559C84.4576 60.478 81.0498 64.0352 77.2823 67.1385C71.5166 71.8894 65.7343 76.5905 60.0535 81.4503C54.6513 86.0703 49.5738 91.0832 44.1845 95.7031L45.3284 98.3618L45.3893 98.3156C46.0867 97.7584 47.0111 97.4134 47.8137 97.0352C50.1384 95.9393 52.4649 94.6514 54.8745 93.764C57.8635 92.6625 60.6753 90.954 63.6033 89.6883C67.7897 87.8765 72.0019 86.1644 76.1919 84.3507C87.9428 79.264 99.5886 74.0629 111.125 68.5186C114.72 66.7917 118.47 65.395 121.998 63.5297C126.526 61.1367 131.362 59.4079 136.138 57.5961C137.692 57.0075 139.319 56.4596 140.906 55.7751C141.105 55.6902 141.708 55.4263 141.708 55.4263V55.43L141.718 55.4245L142.079 56.2363L142.161 56.4134H142.159L148 69.5186L148.02 69.5075L148.472 70.5001C148.472 70.5001 147.688 70.8876 147.448 71.002C146.02 71.6791 144.541 72.2677 143.098 72.9153C137.572 75.3894 131.852 77.4042 126.268 79.7418C118.76 82.8839 111.214 85.906 103.655 88.919C90.6458 94.1053 77.941 100.168 64.952 105.445C60.9557 107.068 57.1125 109.258 53.0812 110.746C50.3137 111.766 47.1845 112.871 44.5738 114.222C42.8819 115.096 41.0424 115.655 39.286 116.415C39.1144 116.489 38.2454 117.019 37.7731 117.148C37.548 117.225 37.3284 117.209 37.1162 117.1C37.0572 117.065 37.0074 117.019 36.9668 116.961C36.8967 116.936 36.8358 116.895 36.7823 116.843C36.452 116.45 36.2196 116.004 36.0867 115.508C35.8598 114.808 35.703 114 35.5387 113.55C34.7288 111.343 34.0037 109.015 32.8948 106.937C32.8635 106.877 32.8432 106.814 32.8376 106.746C32.8303 106.677 32.8376 106.611 32.8561 106.546C32.8764 106.48 32.9078 106.421 32.952 106.369C32.9945 106.316 33.0461 106.273 33.107 106.242C33.1236 106.233 33.1402 106.225 33.1568 106.218L32.8247 105.341C32.7159 105.308 32.6273 105.247 32.559 105.157C30.5793 102.519 28.6107 99.8673 26.6513 97.2012C25.8432 96.1053 24.8561 95.0389 24.1697 93.8636C24.1347 93.8046 24.1125 93.7418 24.1033 93.6736C24.0941 93.6053 24.0978 93.5389 24.1162 93.4725C24.1328 93.4079 24.1624 93.347 24.203 93.2935C24.2454 93.2382 24.2952 93.1939 24.3542 93.1588C24.4133 93.1256 24.476 93.1035 24.5443 93.0942C24.6107 93.085 24.679 93.0887 24.7435 93.1072C24.81 93.1238 24.8708 93.1533 24.9244 93.1939C24.9797 93.2363 25.024 93.2861 25.0572 93.3452C25.5812 94.1791 26.1642 94.9706 26.8026 95.7197ZM33.4336 105.072C33.3782 105.185 33.2934 105.266 33.179 105.317C33.0627 105.369 32.9446 105.377 32.8247 105.34L33.1568 106.218C33.2786 106.17 33.4004 106.168 33.524 106.212C33.6476 106.258 33.7399 106.338 33.8026 106.454C34.9336 108.574 35.6771 110.947 36.5037 113.198C36.6236 113.522 36.7399 114.032 36.8801 114.555L38.5351 115.657C38.6974 115.567 38.8247 115.496 38.8782 115.472C40.6125 114.722 42.4299 114.174 44.1015 113.308C46.1845 112.279 48.3192 111.375 50.5111 110.596L38.7251 102.755L33.4336 105.072ZM61.214 91.9559C59.2399 92.9411 57.2768 93.9762 55.2306 94.7289C53.3321 95.43 51.4852 96.3821 49.6494 97.2898L62.0886 105.568C62.9096 105.192 63.7343 104.83 64.5646 104.493C67.7435 103.201 70.9041 101.864 74.0572 100.502L61.214 91.9559ZM84.6458 81.7861C81.9686 82.9632 79.2878 84.1348 76.6015 85.2953C75.3303 85.8452 74.059 86.3876 72.786 86.9227L85.6033 95.4522C89.5554 93.7179 93.5111 91.9946 97.4889 90.3304L84.6458 81.7861ZM107.638 71.3212C103.803 73.1367 99.9557 74.919 96.0959 76.6699L109.395 85.5204C113.458 83.8913 117.511 82.2474 121.559 80.585L107.638 71.3212ZM51.3672 69.454C47.9188 72.2086 44.4022 74.871 40.9502 77.6145L57.2011 82.5721C57.9244 81.9319 58.6513 81.299 59.3838 80.6699C61.9225 78.5001 64.476 76.3562 67.0461 74.2363L51.3672 69.454ZM130.637 60.8618C127.865 61.9356 125.111 63.0481 122.48 64.4411C121.334 65.0463 120.164 65.6035 118.985 66.1367L133.454 75.7658C136.55 74.5555 139.644 73.3359 142.677 71.9762C143.611 71.5573 144.563 71.1643 145.502 70.7548L130.637 60.8618ZM70.9022 52.9928C67.5904 55.7455 64.2971 58.5204 61.0221 61.3175L76.8653 66.1514C80.1162 63.4466 83.1107 60.4171 86.3524 57.7049L70.9022 52.9928ZM90.8948 36.6699C89.0387 38.1643 87.1771 39.6496 85.3395 41.1422C83.7971 42.395 82.2565 43.6496 80.7196 44.9042L96.6587 49.7677C98.7251 48.1662 100.749 46.5241 102.655 44.7972C103.908 43.6625 105.173 42.5352 106.456 41.4171L90.8948 36.6699Z" fill="#334865"/>
</g>
<mask id="mask3_22426_2185" style="mask-type:luminance" maskUnits="userSpaceOnUse" x="93" y="93" width="72" height="72">
<path d="M93 93H164.76V164.826H93V93Z" fill="white"/>
</mask>
<g mask="url(#mask3_22426_2185)">
<path d="M164.638 156.563L154.227 146.151C158.144 140.646 160.472 133.935 160.472 126.667C160.472 108.074 145.398 93 126.806 93C108.214 93 93.1387 108.074 93.1387 126.667C93.1387 145.259 108.214 160.332 126.806 160.332C134.075 160.332 140.789 158.004 146.29 154.085L156.704 164.496L164.638 156.563Z" fill="#9AAAB4"/>
</g>
<path d="M149.25 126.667C149.25 127.034 149.242 127.401 149.223 127.768C149.204 128.135 149.178 128.501 149.142 128.866C149.106 129.232 149.061 129.596 149.008 129.959C148.953 130.324 148.891 130.685 148.819 131.046C148.747 131.406 148.667 131.764 148.577 132.12C148.488 132.476 148.391 132.83 148.283 133.181C148.177 133.534 148.062 133.882 147.939 134.228C147.815 134.573 147.682 134.916 147.541 135.256C147.401 135.595 147.252 135.931 147.095 136.262C146.939 136.595 146.772 136.923 146.6 137.246C146.427 137.571 146.246 137.89 146.057 138.205C145.868 138.52 145.671 138.831 145.468 139.136C145.263 139.441 145.052 139.742 144.834 140.037C144.614 140.331 144.388 140.621 144.156 140.905C143.923 141.189 143.682 141.467 143.436 141.739C143.189 142.012 142.936 142.278 142.676 142.537C142.416 142.796 142.15 143.05 141.878 143.296C141.606 143.544 141.329 143.783 141.044 144.016C140.761 144.25 140.471 144.476 140.176 144.694C139.88 144.913 139.58 145.125 139.275 145.328C138.97 145.533 138.66 145.728 138.345 145.917C138.03 146.106 137.71 146.288 137.386 146.461C137.062 146.634 136.734 146.799 136.402 146.956C136.07 147.113 135.734 147.261 135.395 147.402C135.055 147.543 134.713 147.675 134.368 147.799C134.02 147.922 133.672 148.038 133.321 148.144C132.97 148.251 132.615 148.349 132.259 148.438C131.902 148.527 131.545 148.608 131.184 148.679C130.824 148.751 130.462 148.815 130.099 148.868C129.736 148.922 129.372 148.966 129.006 149.003C128.64 149.039 128.273 149.066 127.906 149.083C127.539 149.102 127.172 149.111 126.805 149.111C126.438 149.111 126.071 149.102 125.704 149.083C125.337 149.066 124.972 149.039 124.606 149.003C124.24 148.966 123.876 148.922 123.512 148.868C123.149 148.815 122.787 148.751 122.427 148.679C122.066 148.608 121.709 148.527 121.352 148.438C120.996 148.349 120.642 148.251 120.29 148.144C119.939 148.038 119.59 147.922 119.245 147.799C118.899 147.675 118.556 147.543 118.217 147.402C117.878 147.261 117.541 147.113 117.209 146.956C116.878 146.799 116.549 146.634 116.225 146.461C115.902 146.288 115.581 146.106 115.268 145.917C114.952 145.728 114.641 145.533 114.337 145.328C114.031 145.125 113.73 144.913 113.435 144.694C113.14 144.476 112.852 144.25 112.567 144.016C112.284 143.783 112.006 143.544 111.733 143.296C111.461 143.05 111.195 142.796 110.935 142.537C110.675 142.278 110.422 142.012 110.176 141.739C109.929 141.467 109.689 141.189 109.455 140.905C109.223 140.621 108.997 140.331 108.779 140.037C108.559 139.742 108.348 139.441 108.144 139.136C107.94 138.831 107.743 138.52 107.554 138.205C107.365 137.89 107.184 137.571 107.011 137.246C106.839 136.923 106.674 136.595 106.517 136.262C106.36 135.931 106.211 135.595 106.07 135.256C105.929 134.916 105.797 134.573 105.674 134.228C105.55 133.882 105.434 133.534 105.328 133.181C105.222 132.83 105.123 132.476 105.034 132.12C104.945 131.764 104.864 131.406 104.792 131.046C104.72 130.685 104.658 130.324 104.605 129.959C104.55 129.596 104.505 129.232 104.469 128.866C104.433 128.501 104.407 128.135 104.388 127.768C104.371 127.401 104.361 127.034 104.361 126.667C104.361 126.299 104.371 125.932 104.388 125.565C104.407 125.199 104.433 124.832 104.469 124.466C104.505 124.101 104.55 123.736 104.605 123.373C104.658 123.01 104.72 122.649 104.792 122.288C104.864 121.928 104.945 121.569 105.034 121.212C105.123 120.856 105.222 120.502 105.328 120.151C105.434 119.8 105.55 119.451 105.674 119.105C105.797 118.759 105.929 118.417 106.07 118.077C106.211 117.738 106.36 117.403 106.517 117.07C106.674 116.738 106.839 116.411 107.011 116.086C107.184 115.762 107.365 115.443 107.554 115.128C107.743 114.813 107.94 114.503 108.144 114.197C108.348 113.891 108.559 113.592 108.779 113.297C108.997 113.002 109.223 112.712 109.455 112.428C109.689 112.144 109.929 111.866 110.176 111.593C110.422 111.322 110.675 111.056 110.935 110.796C111.195 110.536 111.461 110.284 111.733 110.036C112.006 109.79 112.284 109.55 112.567 109.317C112.852 109.084 113.14 108.858 113.435 108.639C113.73 108.421 114.031 108.209 114.337 108.004C114.641 107.801 114.952 107.604 115.268 107.415C115.581 107.227 115.902 107.046 116.225 106.873C116.549 106.699 116.878 106.534 117.209 106.377C117.541 106.22 117.878 106.071 118.217 105.93C118.556 105.791 118.899 105.658 119.245 105.534C119.59 105.41 119.939 105.296 120.29 105.188C120.642 105.082 120.996 104.985 121.352 104.894C121.709 104.805 122.066 104.725 122.427 104.654C122.787 104.582 123.149 104.519 123.512 104.465C123.876 104.412 124.24 104.366 124.606 104.33C124.972 104.295 125.337 104.267 125.704 104.249C126.071 104.231 126.438 104.223 126.805 104.223C127.172 104.223 127.539 104.231 127.906 104.249C128.273 104.267 128.64 104.295 129.006 104.33C129.372 104.366 129.736 104.412 130.099 104.465C130.462 104.519 130.824 104.582 131.184 104.654C131.545 104.725 131.902 104.805 132.259 104.894C132.615 104.985 132.97 105.082 133.321 105.188C133.672 105.296 134.02 105.41 134.368 105.534C134.713 105.658 135.055 105.791 135.395 105.93C135.734 106.071 136.07 106.22 136.402 106.377C136.734 106.534 137.062 106.699 137.386 106.873C137.71 107.046 138.03 107.227 138.345 107.415C138.66 107.604 138.97 107.801 139.275 108.004C139.58 108.209 139.88 108.421 140.176 108.639C140.471 108.858 140.761 109.084 141.044 109.317C141.329 109.55 141.606 109.79 141.878 110.036C142.15 110.284 142.416 110.536 142.676 110.796C142.936 111.056 143.189 111.322 143.436 111.593C143.682 111.866 143.923 112.144 144.156 112.428C144.388 112.712 144.614 113.002 144.834 113.297C145.052 113.592 145.263 113.891 145.468 114.197C145.671 114.503 145.868 114.813 146.057 115.128C146.246 115.443 146.427 115.762 146.6 116.086C146.772 116.411 146.939 116.738 147.095 117.07C147.252 117.403 147.401 117.738 147.541 118.077C147.682 118.417 147.815 118.759 147.939 119.105C148.062 119.451 148.177 119.8 148.283 120.151C148.391 120.502 148.488 120.856 148.577 121.212C148.667 121.569 148.747 121.928 148.819 122.288C148.891 122.649 148.953 123.01 149.008 123.373C149.061 123.736 149.106 124.101 149.142 124.466C149.178 124.832 149.204 125.199 149.223 125.565C149.242 125.932 149.25 126.299 149.25 126.667Z" fill="#BDDDF4" fill-opacity="0.5"/>
<path d="M190.571 174.844L166.765 151.04C164.573 148.85 161.022 148.85 158.832 151.04L150.897 158.975C148.706 161.166 148.706 164.718 150.897 166.909L174.699 190.711C179.082 195.096 186.191 195.096 190.573 190.711C194.952 186.335 194.949 179.225 190.571 174.844Z" fill="#67757F"/>
</g>
</svg>
