<svg width="28" height="27" viewBox="0 0 28 27" fill="none" xmlns="http://www.w3.org/2000/svg">
<path d="M12.6293 2.6113C13.2511 1.57799 14.7492 1.57799 15.3711 2.6113L18.4783 7.7745C18.7017 8.14572 19.0661 8.41047 19.4882 8.50823L25.3589 9.86789C26.5338 10.14 26.9967 11.5648 26.2062 12.4755L22.2559 17.0262C21.9718 17.3534 21.8327 17.7817 21.8701 18.2134L22.3911 24.2169C22.4954 25.4184 21.2834 26.2989 20.173 25.8285L14.6243 23.4778C14.2254 23.3088 13.775 23.3088 13.376 23.4778L7.82734 25.8285C6.71688 26.2989 5.50491 25.4184 5.60918 24.2169L6.13021 18.2134C6.16767 17.7817 6.02848 17.3534 5.74447 17.0262L1.79417 12.4755C1.00359 11.5648 1.46652 10.14 2.64143 9.86789L8.51212 8.50823C8.93421 8.41047 9.2986 8.14572 9.52201 7.7745L12.6293 2.6113Z" fill="#E4A802" stroke="#E4A802" stroke-width="2"/>
</svg>
