<svg width="32" height="32" viewBox="0 0 32 32" fill="none" xmlns="http://www.w3.org/2000/svg">
<path d="M21.5865 2.66666H10.4132C5.55984 2.66666 2.6665 5.55999 2.6665 10.4133V21.5733C2.6665 26.44 5.55984 29.3333 10.4132 29.3333H21.5732C26.4265 29.3333 29.3198 26.44 29.3198 21.5867V10.4133C29.3332 5.55999 26.4398 2.66666 21.5865 2.66666ZM11.3332 8.50666C12.7065 8.50666 13.8398 9.62666 13.8398 11.0133C13.8398 12.4 12.7198 13.52 11.3332 13.52C9.9465 13.52 8.8265 12.3733 8.8265 11C8.8265 9.62666 9.95984 8.50666 11.3332 8.50666ZM15.9998 25.44C12.4132 25.44 9.49317 22.52 9.49317 18.9333C9.49317 18 10.2532 17.2267 11.1865 17.2267H20.7865C21.7198 17.2267 22.4798 17.9867 22.4798 18.9333C22.5065 22.52 19.5865 25.44 15.9998 25.44ZM20.6665 13.4933C19.2932 13.4933 18.1598 12.3733 18.1598 10.9867C18.1598 9.59999 19.2798 8.47999 20.6665 8.47999C22.0532 8.47999 23.1732 9.59999 23.1732 10.9867C23.1732 12.3733 22.0398 13.4933 20.6665 13.4933Z" fill="#FDFDFD"/>
</svg>
