<svg width="32" height="32" viewBox="0 0 32 32" fill="none" xmlns="http://www.w3.org/2000/svg">
<path d="M28.2002 8.22668C27.6535 7.93334 26.5068 7.62668 24.9468 8.72001L22.9868 10.1067C22.8402 5.96001 21.0402 4.33334 16.6668 4.33334H8.66683C4.10683 4.33334 2.3335 6.10668 2.3335 10.6667V21.3333C2.3335 24.4 4.00016 27.6667 8.66683 27.6667H16.6668C21.0402 27.6667 22.8402 26.04 22.9868 21.8933L24.9468 23.28C25.7735 23.8667 26.4935 24.0533 27.0668 24.0533C27.5602 24.0533 27.9468 23.9067 28.2002 23.7733C28.7468 23.4933 29.6668 22.7333 29.6668 20.8267V11.1733C29.6668 9.26668 28.7468 8.50668 28.2002 8.22668ZM14.6668 15.1733C13.2935 15.1733 12.1602 14.0533 12.1602 12.6667C12.1602 11.28 13.2935 10.16 14.6668 10.16C16.0402 10.16 17.1735 11.28 17.1735 12.6667C17.1735 14.0533 16.0402 15.1733 14.6668 15.1733Z" fill="#FDFDFD"/>
</svg>
